<svg id="svg" version="1.1" xmlns="http://www.w3.org/2000/svg" xmlns:xlink="http://www.w3.org/1999/xlink" width="400" height="400" viewBox="0, 0, 400,400"><g id="svgg"><path id="path0" d="M159.375 68.378 C 93.583 71.139,40.935 98.210,33.811 132.940 C 30.904 147.114,35.131 185.293,42.379 210.317 C 59.553 269.615,105.272 313.738,157.031 320.967 C 164.066 321.950,181.245 321.952,187.500 320.971 C 218.177 316.161,252.607 293.715,273.372 264.988 L 275.385 262.203 279.587 261.939 C 307.530 260.179,331.611 250.310,349.130 233.436 C 385.578 198.331,377.541 145.690,334.570 138.067 C 327.627 136.835,314.637 137.257,309.338 138.885 C 308.823 139.044,308.632 138.488,308.242 135.702 C 304.811 111.175,278.998 89.748,238.237 77.593 C 213.813 70.310,187.262 67.207,159.375 68.378 M192.578 82.198 C 250.757 88.402,287.196 110.971,287.229 140.820 C 287.287 194.949,167.488 222.715,91.602 186.161 C 59.873 170.878,47.131 147.606,58.244 125.238 C 70.294 100.986,108.746 84.257,158.789 81.495 C 164.763 81.166,187.289 81.634,192.578 82.198 M157.813 89.893 C 74.636 94.501,34.280 140.101,84.375 172.874 C 122.796 198.009,193.782 201.801,241.591 181.272 C 271.732 168.330,285.360 148.421,276.784 129.860 C 264.678 103.658,214.377 86.760,157.813 89.893 M154.492 107.212 C 160.419 108.748,168.116 114.587,170.087 119.043 C 170.970 121.037,171.161 121.077,171.947 119.434 C 180.963 100.571,215.324 103.278,215.414 122.858 C 215.449 130.645,211.140 135.507,195.371 145.474 C 179.240 155.668,172.315 162.394,171.406 168.750 C 171.294 169.539,171.127 169.313,170.541 167.578 C 167.745 159.305,164.329 156.210,142.514 142.188 C 135.516 137.689,130.616 133.033,128.610 128.975 C 122.167 115.937,137.715 102.862,154.492 107.212 M111.036 112.705 C 112.995 114.664,112.520 117.797,110.112 118.797 C 103.511 121.538,97.490 126.094,94.544 130.576 C 82.606 148.741,105.677 168.095,147.499 174.997 C 156.341 176.456,157.579 177.201,156.199 180.229 C 155.255 182.301,151.917 182.342,140.298 180.424 C 95.602 173.044,72.512 148.579,88.393 125.428 C 93.939 117.344,107.855 109.524,111.036 112.705 M238.672 113.389 C 264.757 126.398,265.751 151.640,240.820 167.957 C 229.214 175.553,202.615 184.005,199.076 181.222 C 196.933 179.536,198.161 176.561,201.226 176.015 C 203.673 175.580,215.170 171.910,219.895 170.057 C 241.995 161.391,253.614 148.993,250.574 137.321 C 248.588 129.696,242.618 123.784,231.678 118.608 C 230.315 117.964,229.528 115.867,230.065 114.312 C 231.129 111.237,233.784 110.952,238.672 113.389 M115.016 134.863 C 115.796 135.551,116.091 136.312,116.374 138.366 C 117.257 144.793,122.457 150.098,132.563 154.882 C 134.956 156.015,138.783 157.820,141.066 158.893 C 159.209 167.419,154.930 173.040,136.133 165.374 C 118.189 158.054,108.594 148.727,108.594 138.601 C 108.594 134.552,112.250 132.424,115.016 134.863 M231.362 134.408 C 233.060 135.182,233.725 136.884,233.435 139.714 C 232.488 148.959,224.621 157.105,210.307 163.664 C 203.934 166.584,202.410 167.395,195.051 171.773 C 188.647 175.583,186.818 176.111,185.738 174.463 C 184.872 173.141,185.137 172.184,187.144 169.381 C 190.473 164.732,194.683 162.063,210.352 154.667 C 219.017 150.577,224.899 144.298,225.726 138.255 C 226.225 134.603,228.453 133.083,231.362 134.408 M329.165 161.907 C 353.795 166.563,353.100 198.961,327.930 219.531 C 318.346 227.363,299.160 235.938,291.220 235.938 L 290.287 235.938 291.842 232.129 C 299.958 212.247,305.373 189.328,307.253 166.896 L 307.522 163.675 309.132 163.231 C 315.614 161.445,323.845 160.901,329.165 161.907 " stroke="none" fill="#040404" fill-rule="evenodd"></path><path id="path1" d="M0.000 200.000 L 0.000 400.000 200.000 400.000 L 400.000 400.000 400.000 200.000 L 400.000 0.000 200.000 0.000 L 0.000 0.000 0.000 200.000 M184.961 68.366 C 252.879 72.351,306.268 102.157,308.676 137.434 C 308.760 138.664,308.830 138.722,309.949 138.491 C 350.128 130.194,379.351 157.696,371.053 195.994 C 363.288 231.837,324.740 259.920,280.464 261.990 L 275.576 262.219 272.847 265.929 C 250.190 296.724,212.611 319.602,181.029 321.826 C 114.084 326.542,54.012 272.421,37.912 192.885 C 33.728 172.212,31.560 141.521,33.654 132.599 C 43.084 92.418,110.089 63.973,184.961 68.366 M160.156 81.693 C 120.755 82.974,83.659 95.647,66.706 113.619 C 44.090 137.593,53.470 166.844,89.603 185.025 C 163.876 222.399,284.829 196.217,287.002 142.296 C 288.483 105.569,233.516 79.308,160.156 81.693 M193.716 90.421 C 284.609 99.569,310.099 154.803,236.644 183.441 C 180.595 205.293,97.536 193.988,70.084 160.771 C 43.507 128.611,86.318 93.927,157.813 89.697 C 163.666 89.351,187.946 89.841,193.716 90.421 M141.797 107.256 C 132.271 109.758,126.265 117.065,127.404 124.768 C 128.358 131.224,133.772 136.747,147.462 145.233 C 163.206 154.991,168.221 159.927,170.959 168.359 C 171.067 168.694,171.466 168.047,171.888 166.855 C 173.975 160.946,178.880 156.042,189.844 148.903 C 207.576 137.355,211.279 134.352,213.658 129.592 C 222.892 111.113,193.465 98.076,177.092 113.392 C 174.653 115.673,171.484 119.793,171.484 120.682 C 171.484 121.541,170.872 121.030,170.187 119.599 C 165.715 110.258,152.403 104.471,141.797 107.256 M105.078 112.833 C 73.269 126.907,77.493 158.469,113.086 172.675 C 127.755 178.530,152.791 183.478,155.471 181.053 C 157.872 178.880,155.869 176.485,151.080 175.805 C 105.730 169.365,80.151 147.545,95.786 128.639 C 98.660 125.164,105.523 120.232,109.095 119.074 C 113.120 117.770,113.038 112.450,108.984 111.896 C 108.019 111.764,106.871 112.040,105.078 112.833 M232.171 112.106 C 228.984 113.392,229.549 117.840,233.059 119.103 C 240.493 121.779,247.989 129.152,250.400 136.161 C 255.517 151.034,235.787 167.435,202.734 175.784 C 199.216 176.673,198.047 177.511,198.047 179.145 C 198.047 182.501,202.820 182.323,216.202 178.467 C 250.090 168.703,265.961 148.691,255.580 128.815 C 251.186 120.401,236.894 110.200,232.171 112.106 M109.922 135.313 C 106.767 138.467,109.392 146.503,115.618 152.755 C 125.375 162.554,152.734 173.192,152.734 167.188 C 152.734 165.496,146.430 161.502,136.665 157.006 C 122.602 150.533,116.885 145.322,116.152 138.307 C 115.714 134.120,112.608 132.626,109.922 135.313 M227.678 134.577 C 226.554 135.187,225.781 136.919,225.781 138.828 C 225.780 144.302,218.154 151.532,207.400 156.257 C 191.898 163.067,182.488 171.330,186.302 174.781 C 187.439 175.810,188.822 175.324,194.437 171.920 C 200.200 168.427,203.487 166.678,211.328 162.929 C 221.980 157.836,228.187 152.664,231.258 146.319 C 234.998 138.591,232.908 131.735,227.678 134.577 M319.336 161.578 C 316.995 161.819,309.490 163.257,308.387 163.676 C 307.568 163.988,307.422 164.296,307.422 165.714 C 307.422 179.943,300.689 209.806,293.001 229.674 C 291.715 232.997,290.719 235.771,290.787 235.839 C 291.085 236.137,298.708 234.183,303.711 232.525 C 313.441 229.301,322.551 224.102,330.078 217.478 C 357.130 193.672,350.350 158.389,319.336 161.578 " stroke="none" fill="#fbfbfb" fill-rule="evenodd"></path><path id="path2" d="M165.137 81.526 C 165.620 81.619,166.411 81.619,166.895 81.526 C 167.378 81.433,166.982 81.356,166.016 81.356 C 165.049 81.356,164.653 81.433,165.137 81.526 M171.387 81.539 C 172.729 81.615,174.927 81.615,176.270 81.539 C 177.612 81.463,176.514 81.401,173.828 81.401 C 171.143 81.401,170.044 81.463,171.387 81.539 M160.645 89.722 C 161.021 89.821,161.636 89.821,162.012 89.722 C 162.388 89.624,162.080 89.544,161.328 89.544 C 160.576 89.544,160.269 89.624,160.645 89.722 M48.999 106.348 L 47.852 107.617 49.121 106.470 C 50.304 105.400,50.570 105.078,50.268 105.078 C 50.201 105.078,49.630 105.649,48.999 106.348 M147.363 106.519 C 147.739 106.618,148.354 106.618,148.730 106.519 C 149.106 106.421,148.799 106.341,148.047 106.341 C 147.295 106.341,146.987 106.421,147.363 106.519 M193.652 106.526 C 194.136 106.619,194.927 106.619,195.410 106.526 C 195.894 106.433,195.498 106.356,194.531 106.356 C 193.564 106.356,193.169 106.433,193.652 106.526 M208.764 135.645 L 207.617 136.914 208.887 135.767 C 209.585 135.136,210.156 134.564,210.156 134.497 C 210.156 134.195,209.834 134.461,208.764 135.645 M287.226 140.625 C 287.226 141.807,287.300 142.290,287.389 141.699 C 287.479 141.108,287.479 140.142,287.389 139.551 C 287.300 138.960,287.226 139.443,287.226 140.625 M54.403 140.625 C 54.403 141.592,54.479 141.987,54.573 141.504 C 54.666 141.021,54.666 140.229,54.573 139.746 C 54.479 139.263,54.403 139.658,54.403 140.625 M359.375 150.586 C 360.104 151.338,360.788 151.953,360.895 151.953 C 361.003 151.953,360.494 151.338,359.766 150.586 C 359.037 149.834,358.353 149.219,358.245 149.219 C 358.138 149.219,358.646 149.834,359.375 150.586 M97.656 154.492 C 98.385 155.244,99.069 155.859,99.177 155.859 C 99.284 155.859,98.776 155.244,98.047 154.492 C 97.318 153.740,96.634 153.125,96.526 153.125 C 96.419 153.125,96.927 153.740,97.656 154.492 M72.852 164.063 C 73.691 164.922,74.465 165.625,74.573 165.625 C 74.680 165.625,74.081 164.922,73.242 164.063 C 72.403 163.203,71.629 162.500,71.521 162.500 C 71.414 162.500,72.012 163.203,72.852 164.063 M347.000 184.766 C 347.000 186.162,347.071 186.733,347.158 186.035 C 347.244 185.337,347.244 184.194,347.158 183.496 C 347.071 182.798,347.000 183.369,347.000 184.766 M166.509 194.812 C 167.103 194.901,167.982 194.899,168.462 194.806 C 168.943 194.714,168.457 194.640,167.383 194.643 C 166.309 194.646,165.916 194.722,166.509 194.812 M175.098 194.801 C 175.474 194.899,176.089 194.899,176.465 194.801 C 176.841 194.702,176.533 194.622,175.781 194.622 C 175.029 194.622,174.722 194.702,175.098 194.801 M162.994 202.624 C 163.587 202.714,164.466 202.711,164.947 202.619 C 165.427 202.526,164.941 202.453,163.867 202.455 C 162.793 202.458,162.400 202.534,162.994 202.624 M171.006 322.162 C 171.925 322.244,173.331 322.243,174.131 322.159 C 174.931 322.075,174.180 322.007,172.461 322.009 C 170.742 322.010,170.088 322.079,171.006 322.162 " stroke="none" fill="#9e9f9f" fill-rule="evenodd"></path><path id="path3" d="M372.356 183.203 C 372.356 183.955,372.437 184.263,372.535 183.887 C 372.633 183.511,372.633 182.896,372.535 182.520 C 372.437 182.144,372.356 182.451,372.356 183.203 " stroke="none" fill="#7c7c7c" fill-rule="evenodd"></path><path id="path4" d="M163.384 68.249 C 163.978 68.339,164.857 68.336,165.337 68.244 C 165.818 68.151,165.332 68.078,164.258 68.080 C 163.184 68.083,162.791 68.159,163.384 68.249 M176.860 68.245 C 177.346 68.338,178.049 68.335,178.423 68.237 C 178.796 68.139,178.398 68.063,177.539 68.067 C 176.680 68.072,176.374 68.152,176.860 68.245 M176.860 89.729 C 177.346 89.823,178.049 89.819,178.423 89.722 C 178.796 89.624,178.398 89.547,177.539 89.552 C 176.680 89.556,176.374 89.636,176.860 89.729 M243.359 125.903 C 243.359 125.971,243.931 126.542,244.629 127.173 L 245.898 128.320 244.751 127.051 C 243.682 125.867,243.359 125.602,243.359 125.903 M66.992 169.531 C 67.831 170.391,68.606 171.094,68.713 171.094 C 68.821 171.094,68.222 170.391,67.383 169.531 C 66.544 168.672,65.769 167.969,65.662 167.969 C 65.554 167.969,66.153 168.672,66.992 169.531 M170.215 194.807 C 170.698 194.900,171.489 194.900,171.973 194.807 C 172.456 194.714,172.061 194.638,171.094 194.638 C 170.127 194.638,169.731 194.714,170.215 194.807 M179.785 202.613 C 180.161 202.711,180.776 202.711,181.152 202.613 C 181.528 202.515,181.221 202.434,180.469 202.434 C 179.717 202.434,179.409 202.515,179.785 202.613 " stroke="none" fill="#747474" fill-rule="evenodd"></path></g></svg>